<?xml version="1.0" encoding="utf-8"?>
<!-- Generator: Adobe Illustrator 21.1.0, SVG Export Plug-In . SVG Version: 6.00 Build 0)  -->
<svg version="1.1" id="Layer_1" xmlns="http://www.w3.org/2000/svg" xmlns:xlink="http://www.w3.org/1999/xlink" x="0px" y="0px"
	 viewBox="0 0 200 141.9" style="enable-background:new 0 0 200 141.9;" xml:space="preserve">
<style type="text/css">
	.st0{fill:#231F20;}
	.st1{fill:#FFFFFF;}
</style>
<path class="st0" d="M188,24H12C5.4,24,0,18.6,0,12v0C0,5.4,5.4,0,12,0h176c6.6,0,12,5.4,12,12v0C200,18.6,194.6,24,188,24z"/>
<path class="st0" d="M80.6,101.9H12c-6.6,0-12-5.4-12-12V52c0-6.6,5.4-12,12-12h68.6c6.6,0,12,5.4,12,12v37.9
	C92.6,96.5,87.2,101.9,80.6,101.9z"/>
<path class="st0" d="M188,64h-67.5c-6.6,0-12-5.4-12-12v0c0-6.6,5.4-12,12-12H188c6.6,0,12,5.4,12,12v0C200,58.6,194.6,64,188,64z"
	/>
<path class="st0" d="M188,101.9h-67.5c-6.6,0-12-5.4-12-12v0c0-6.6,5.4-12,12-12H188c6.6,0,12,5.4,12,12v0
	C200,96.5,194.6,101.9,188,101.9z"/>
<path class="st0" d="M188,141.9H12.5c-6.6,0-12-5.4-12-12v0c0-6.6,5.4-12,12-12H188c6.6,0,12,5.4,12,12v0
	C200,136.5,194.6,141.9,188,141.9z"/>
<g>
	<path class="st1" d="M36.9,87.4L22.2,72.8c-1.4-1.4-1.4-3.8,0-5.2l0,0c1.4-1.4,3.8-1.4,5.2,0l14.7,14.7c1.4,1.4,1.4,3.8,0,5.2l0,0
		C40.7,88.9,38.3,88.9,36.9,87.4z"/>
	<path class="st1" d="M37.2,82.2L66.4,53c1.4-1.4,3.8-1.4,5.2,0l0,0c1.4,1.4,1.4,3.8,0,5.2L42.4,87.4c-1.4,1.4-3.8,1.4-5.2,0l0,0
		C35.7,86,35.7,83.7,37.2,82.2z"/>
</g>
</svg>
