<?xml version="1.0" encoding="utf-8"?>
<!-- Generator: Adobe Illustrator 21.1.0, SVG Export Plug-In . SVG Version: 6.00 Build 0)  -->
<svg version="1.1" id="Layer_1" xmlns="http://www.w3.org/2000/svg" xmlns:xlink="http://www.w3.org/1999/xlink" x="0px" y="0px"
	 viewBox="0 0 270.9 117.5" style="enable-background:new 0 0 270.9 117.5;" xml:space="preserve">
<style type="text/css">
	.st0{fill:#FF0000;}
</style>
<path class="st0" d="M151,88c0-26.2-21.3-47.5-47.5-47.5S56,61.7,56,88c0,3.6,0.4,7.1,1.2,10.5h92.6C150.6,95.1,151,91.6,151,88z"/>
<path class="st0" d="M6,98.5c-3.3,0-6,2.7-6,6s2.7,6,6,6h55.7c-2-3.7-3.5-7.8-4.5-12H6z"/>
<path class="st0" d="M206,98.5h-56.2c-1,4.2-2.5,8.3-4.5,12H206c3.3,0,6-2.7,6-6S209.3,98.5,206,98.5z"/>
<path class="st0" d="M57.2,98.5c1,4.2,2.5,8.3,4.5,12h83.7c2-3.7,3.5-7.8,4.5-12H57.2z"/>
<g>
	<path d="M0.4,26.5h15.9l1.3,10.9H18C22.7,29,29.7,25,35.9,25c3.7,0,5.8,0.5,7.6,1.3l-3.3,16.8c-2.2-0.5-4.1-1-6.8-1
		c-4.6,0-10.2,3-13.5,11.2V89H0.4V26.5z"/>
	<path d="M48.5,8.8c0-5.3,4.1-8.8,9.7-8.8c5.5,0,9.6,3.5,9.6,8.8c0,5.1-4.1,8.8-9.6,8.8C52.5,17.6,48.5,13.9,48.5,8.8z M50,27.5h16
		V89H50V27.5z"/>
	<path d="M75.7,82.1l5.9-8.1c5.4,4.3,10.7,6.9,17.1,6.9c7.3,0,10.7-3.5,10.7-8.1c0-5.5-6.8-7.9-13.4-10.4c-8-3.1-17.3-7.4-17.3-17.6
		c0-10.1,8.1-17.7,21.4-17.7c8.1,0,14.7,3.3,19.7,7.1L114,42c-4.2-3.1-8.5-5.3-13.5-5.3c-6.6,0-9.7,3.3-9.7,7.5
		c0,5.2,6.3,7.1,12.9,9.6c8.5,3.2,17.8,6.9,17.8,18.4c0,10.1-8,18.4-23,18.4C90.1,90.5,81.5,86.9,75.7,82.1z"/>
	<path d="M131.3,10.6c0-4.1,3-6.5,6.9-6.5c4,0,6.9,2.4,6.9,6.5c0,3.7-3,6.5-6.9,6.5C134.3,17,131.3,14.3,131.3,10.6z M133.2,29.3h10
		V89h-10V29.3z"/>
	<path d="M162.1,30.4h5.3l0.8,8.9h0.2c5.9-5.8,12-10.4,20-10.4c12.2,0,17.8,7.6,17.8,22.6V89h-6.4V52.4c0-12.2-3.8-17.8-12.9-17.8
		c-6.8,0-11.7,3.5-18.5,10.6V89H162L162.1,30.4L162.1,30.4z"/>
	<path d="M220.6,101.1c0-5.1,3.4-10.4,8.8-14.3v-0.4c-3-1.8-5.2-4.8-5.2-9.2c0-5.3,3.8-8.9,6.4-10.7v-0.4c-3.6-3.2-7.4-8.9-7.4-15.9
		c0-11.8,8.8-20.4,19.9-20.4c3.3,0,5.9,0.8,7.6,1.4H270v3.6h-13.9c4.1,3.4,6.8,8.8,6.8,15.4c0,11.5-8.7,20.6-19.9,20.6
		c-3.3,0-7.1-1-9.8-2.6c-2.6,2.1-5.1,4.8-5.1,8.8c0,4.4,2.4,8,11.3,8h12.9c12.8,0,18.6,4.1,18.6,13c0,9.8-10.4,19.5-26.7,19.5
		C229.6,117.3,220.6,110.8,220.6,101.1z M267,98.3c0-6.8-4.8-9.5-14-9.5h-13.2c-0.8,0-3.8-0.2-7-1c-5.7,3.8-8,8.7-8,13
		c0,7.7,7.1,13,19.8,13C258.4,113.8,267,105.9,267,98.3z M259,50.1c0-10.3-7.1-16.8-15.8-16.8c-8.6,0-15.7,6.4-15.7,16.8
		c0,10,7.4,16.9,15.7,16.9C251.6,67.1,259,60.1,259,50.1z"/>
</g>
</svg>
